<mxfile host="65bd71144e">
    <diagram id="FcgTmZsHKgltt1MdJYTw" name="Page-1">
        <mxGraphModel dx="1114" dy="911" grid="1" gridSize="10" guides="1" tooltips="1" connect="1" arrows="1" fold="1" page="0" pageScale="1" pageWidth="827" pageHeight="1169" math="0" shadow="0">
            <root>
                <mxCell id="0"/>
                <mxCell id="1" parent="0"/>
                <mxCell id="2" value="" style="swimlane;childLayout=stackLayout;resizeParent=1;resizeParentMax=0;horizontal=0;startSize=40;horizontalStack=0;fontSize=13;strokeWidth=3;" parent="1" vertex="1">
                    <mxGeometry x="80" y="120" width="1300" height="680" as="geometry">
                        <mxRectangle x="140" y="120" width="30" height="50" as="alternateBounds"/>
                    </mxGeometry>
                </mxCell>
                <mxCell id="3" value="Cliente" style="swimlane;startSize=30;horizontal=0;" parent="2" vertex="1">
                    <mxGeometry x="40" width="1260" height="210" as="geometry"/>
                </mxCell>
                <mxCell id="11" value="" style="edgeStyle=none;html=1;" edge="1" parent="3" source="8" target="10">
                    <mxGeometry relative="1" as="geometry"/>
                </mxCell>
                <mxCell id="8" value="" style="ellipse;whiteSpace=wrap;html=1;fontSize=13;strokeWidth=3;fillColor=#60a917;fontColor=#ffffff;strokeColor=#003300;" parent="3" vertex="1">
                    <mxGeometry x="90" y="80" width="50" height="50" as="geometry"/>
                </mxCell>
                <mxCell id="10" value="autenticar-se&lt;br&gt;na plataforma" style="whiteSpace=wrap;html=1;fontSize=20;strokeColor=#FFFFFF;strokeWidth=3;" vertex="1" parent="3">
                    <mxGeometry x="180" y="80.00000000000023" width="180" height="60" as="geometry"/>
                </mxCell>
                <mxCell id="4" value="Sistema" style="swimlane;startSize=30;horizontal=0;" parent="2" vertex="1">
                    <mxGeometry x="40" y="210" width="1260" height="280" as="geometry"/>
                </mxCell>
                <mxCell id="5" value="Prestador" style="swimlane;startSize=30;horizontal=0;" parent="2" vertex="1">
                    <mxGeometry x="40" y="490" width="1260" height="190" as="geometry"/>
                </mxCell>
                <mxCell id="q8630EqK6GQMRe83cNQJ-13" style="edgeStyle=none;html=1;exitX=0.5;exitY=0;exitDx=0;exitDy=0;" edge="1" parent="1">
                    <mxGeometry relative="1" as="geometry">
                        <mxPoint x="660" y="220" as="targetPoint"/>
                        <mxPoint x="660.0000000000002" y="450.0000000000002" as="sourcePoint"/>
                    </mxGeometry>
                </mxCell>
            </root>
        </mxGraphModel>
    </diagram>
    <diagram id="-vOBDNSAgcDx9Uu4DVyQ" name="BPMN as is">
        <mxGraphModel dx="724" dy="992" grid="1" gridSize="10" guides="1" tooltips="1" connect="1" arrows="1" fold="1" page="0" pageScale="1" pageWidth="827" pageHeight="1169" math="0" shadow="1">
            <root>
                <mxCell id="k4ERf0mPYfr9nw226OpM-0"/>
                <mxCell id="k4ERf0mPYfr9nw226OpM-1" parent="k4ERf0mPYfr9nw226OpM-0"/>
                <mxCell id="E6LEEl8h78n84_nz22sx-0" value="As is" style="swimlane;childLayout=stackLayout;resizeParent=1;resizeParentMax=0;horizontal=0;startSize=40;horizontalStack=0;fontSize=20;strokeWidth=3;" parent="k4ERf0mPYfr9nw226OpM-1" vertex="1">
                    <mxGeometry x="130" y="-10" width="1420" height="630" as="geometry">
                        <mxRectangle x="140" y="120" width="30" height="50" as="alternateBounds"/>
                    </mxGeometry>
                </mxCell>
                <mxCell id="E6LEEl8h78n84_nz22sx-1" value="Cliente" style="swimlane;startSize=30;horizontal=0;fontSize=17;" parent="E6LEEl8h78n84_nz22sx-0" vertex="1">
                    <mxGeometry x="40" width="1380" height="340" as="geometry"/>
                </mxCell>
                <mxCell id="7rgVfsqE3Kh3zxF61I66-3" value="" style="edgeStyle=none;html=1;fontSize=20;" parent="E6LEEl8h78n84_nz22sx-1" source="7rgVfsqE3Kh3zxF61I66-0" target="7rgVfsqE3Kh3zxF61I66-2" edge="1">
                    <mxGeometry relative="1" as="geometry"/>
                </mxCell>
                <mxCell id="7rgVfsqE3Kh3zxF61I66-0" value="" style="ellipse;whiteSpace=wrap;html=1;fontSize=13;strokeWidth=3;fillColor=#60a917;fontColor=#ffffff;strokeColor=#003300;" parent="E6LEEl8h78n84_nz22sx-1" vertex="1">
                    <mxGeometry x="80" y="70" width="50" height="50" as="geometry"/>
                </mxCell>
                <mxCell id="7rgVfsqE3Kh3zxF61I66-35" value="" style="edgeStyle=none;html=1;fontSize=20;" parent="E6LEEl8h78n84_nz22sx-1" source="7rgVfsqE3Kh3zxF61I66-2" target="7rgVfsqE3Kh3zxF61I66-34" edge="1">
                    <mxGeometry relative="1" as="geometry"/>
                </mxCell>
                <mxCell id="7rgVfsqE3Kh3zxF61I66-2" value="Procurar&amp;nbsp;&lt;br&gt;Serviço estetico" style="whiteSpace=wrap;html=1;fontSize=20;strokeColor=#FFFFFF;strokeWidth=3;" parent="E6LEEl8h78n84_nz22sx-1" vertex="1">
                    <mxGeometry x="210" y="65" width="180" height="60" as="geometry"/>
                </mxCell>
                <mxCell id="7rgVfsqE3Kh3zxF61I66-4" value="Solicitar&amp;nbsp;&lt;br&gt;Serviço estetico" style="whiteSpace=wrap;html=1;fontSize=20;strokeColor=#FFFFFF;strokeWidth=3;" parent="E6LEEl8h78n84_nz22sx-1" vertex="1">
                    <mxGeometry x="470" y="180" width="180" height="60" as="geometry"/>
                </mxCell>
                <mxCell id="7rgVfsqE3Kh3zxF61I66-24" value="comparecer&amp;nbsp;&lt;br&gt;no horario&lt;br&gt;marcado" style="whiteSpace=wrap;html=1;fontSize=20;strokeColor=#FFFFFF;rounded=0;strokeWidth=3;" parent="E6LEEl8h78n84_nz22sx-1" vertex="1">
                    <mxGeometry x="860" y="210" width="140" height="80" as="geometry"/>
                </mxCell>
                <mxCell id="7rgVfsqE3Kh3zxF61I66-32" value="" style="edgeStyle=none;html=1;fontSize=20;" parent="E6LEEl8h78n84_nz22sx-1" source="7rgVfsqE3Kh3zxF61I66-28" target="7rgVfsqE3Kh3zxF61I66-30" edge="1">
                    <mxGeometry relative="1" as="geometry"/>
                </mxCell>
                <mxCell id="7rgVfsqE3Kh3zxF61I66-28" value="Realizar pagamento" style="whiteSpace=wrap;html=1;fontSize=20;strokeColor=#FFFFFF;rounded=0;strokeWidth=3;" parent="E6LEEl8h78n84_nz22sx-1" vertex="1">
                    <mxGeometry x="1220" y="190" width="140" height="80" as="geometry"/>
                </mxCell>
                <mxCell id="7rgVfsqE3Kh3zxF61I66-30" value="" style="ellipse;whiteSpace=wrap;html=1;fontSize=13;strokeWidth=3;fillColor=#e51400;fontColor=#ffffff;strokeColor=#000000;" parent="E6LEEl8h78n84_nz22sx-1" vertex="1">
                    <mxGeometry x="1265" y="60" width="50" height="50" as="geometry"/>
                </mxCell>
                <mxCell id="7rgVfsqE3Kh3zxF61I66-36" value="" style="edgeStyle=none;html=1;fontSize=20;" parent="E6LEEl8h78n84_nz22sx-1" source="7rgVfsqE3Kh3zxF61I66-34" target="7rgVfsqE3Kh3zxF61I66-4" edge="1">
                    <mxGeometry relative="1" as="geometry"/>
                </mxCell>
                <mxCell id="7rgVfsqE3Kh3zxF61I66-34" value="Escolher horario" style="whiteSpace=wrap;html=1;fontSize=20;strokeColor=#FFFFFF;strokeWidth=3;" parent="E6LEEl8h78n84_nz22sx-1" vertex="1">
                    <mxGeometry x="210" y="180" width="180" height="60" as="geometry"/>
                </mxCell>
                <mxCell id="7rgVfsqE3Kh3zxF61I66-40" style="edgeStyle=none;html=1;exitX=0;exitY=0.5;exitDx=0;exitDy=0;entryX=1;entryY=0.5;entryDx=0;entryDy=0;fontSize=20;" parent="E6LEEl8h78n84_nz22sx-1" source="7rgVfsqE3Kh3zxF61I66-39" target="7rgVfsqE3Kh3zxF61I66-2" edge="1">
                    <mxGeometry relative="1" as="geometry"/>
                </mxCell>
                <mxCell id="7rgVfsqE3Kh3zxF61I66-39" value="A" style="ellipse;whiteSpace=wrap;html=1;aspect=fixed;fontSize=20;strokeColor=#000000;strokeWidth=3;" parent="E6LEEl8h78n84_nz22sx-1" vertex="1">
                    <mxGeometry x="550" y="55.004285714286254" width="80" height="80" as="geometry"/>
                </mxCell>
                <mxCell id="E6LEEl8h78n84_nz22sx-4" value="Prestador" style="swimlane;startSize=30;horizontal=0;fontSize=17;" parent="E6LEEl8h78n84_nz22sx-0" vertex="1">
                    <mxGeometry x="40" y="340" width="1380" height="290" as="geometry"/>
                </mxCell>
                <mxCell id="7rgVfsqE3Kh3zxF61I66-22" style="edgeStyle=none;html=1;exitX=1;exitY=0.5;exitDx=0;exitDy=0;entryX=0.5;entryY=0;entryDx=0;entryDy=0;fontSize=20;" parent="E6LEEl8h78n84_nz22sx-4" source="7rgVfsqE3Kh3zxF61I66-12" target="7rgVfsqE3Kh3zxF61I66-17" edge="1">
                    <mxGeometry relative="1" as="geometry">
                        <Array as="points">
                            <mxPoint x="630" y="50"/>
                        </Array>
                    </mxGeometry>
                </mxCell>
                <mxCell id="7rgVfsqE3Kh3zxF61I66-12" value="Verificar agenda" style="whiteSpace=wrap;html=1;fontSize=20;strokeColor=#FFFFFF;strokeWidth=3;" parent="E6LEEl8h78n84_nz22sx-4" vertex="1">
                    <mxGeometry x="430" y="20" width="180" height="60" as="geometry"/>
                </mxCell>
                <mxCell id="7rgVfsqE3Kh3zxF61I66-17" value="x" style="rhombus;whiteSpace=wrap;html=1;fontSize=20;strokeColor=#FFFFFF;strokeWidth=3;" parent="E6LEEl8h78n84_nz22sx-4" vertex="1">
                    <mxGeometry x="590.0000000000002" y="120.00000000000023" width="80" height="80" as="geometry"/>
                </mxCell>
                <mxCell id="7rgVfsqE3Kh3zxF61I66-18" value="agenda cheia" style="text;html=1;align=center;verticalAlign=middle;resizable=0;points=[];autosize=1;strokeColor=none;fillColor=none;fontSize=20;" parent="E6LEEl8h78n84_nz22sx-4" vertex="1">
                    <mxGeometry x="440.0000000000002" y="110.00000000000023" width="140" height="30" as="geometry"/>
                </mxCell>
                <mxCell id="7rgVfsqE3Kh3zxF61I66-19" value="agenda livre" style="text;html=1;align=center;verticalAlign=middle;resizable=0;points=[];autosize=1;strokeColor=none;fillColor=none;fontSize=20;" parent="E6LEEl8h78n84_nz22sx-4" vertex="1">
                    <mxGeometry x="690.0000000000002" y="110.00000000000023" width="120" height="30" as="geometry"/>
                </mxCell>
                <mxCell id="7rgVfsqE3Kh3zxF61I66-23" value="Marcar horario" style="rounded=0;whiteSpace=wrap;html=1;fontSize=20;strokeColor=#FFFFFF;strokeWidth=3;" parent="E6LEEl8h78n84_nz22sx-4" vertex="1">
                    <mxGeometry x="870" y="130" width="120" height="60" as="geometry"/>
                </mxCell>
                <mxCell id="7rgVfsqE3Kh3zxF61I66-21" style="edgeStyle=none;html=1;exitX=1;exitY=0.5;exitDx=0;exitDy=0;fontSize=20;entryX=0;entryY=0.5;entryDx=0;entryDy=0;" parent="E6LEEl8h78n84_nz22sx-4" source="7rgVfsqE3Kh3zxF61I66-17" target="7rgVfsqE3Kh3zxF61I66-23" edge="1">
                    <mxGeometry relative="1" as="geometry">
                        <mxPoint x="850" y="160" as="targetPoint"/>
                        <mxPoint x="600.0000000000005" y="170.00000000000023" as="sourcePoint"/>
                    </mxGeometry>
                </mxCell>
                <mxCell id="7rgVfsqE3Kh3zxF61I66-26" value="executar o&amp;nbsp;&lt;br&gt;serviço" style="whiteSpace=wrap;html=1;fontSize=20;strokeColor=#FFFFFF;rounded=0;strokeWidth=3;" parent="E6LEEl8h78n84_nz22sx-4" vertex="1">
                    <mxGeometry x="1070" y="120" width="140" height="80" as="geometry"/>
                </mxCell>
                <mxCell id="7rgVfsqE3Kh3zxF61I66-38" value="A" style="ellipse;whiteSpace=wrap;html=1;aspect=fixed;fontSize=20;strokeColor=#000000;strokeWidth=3;" parent="E6LEEl8h78n84_nz22sx-4" vertex="1">
                    <mxGeometry x="240" y="120.00428571428625" width="80" height="80" as="geometry"/>
                </mxCell>
                <mxCell id="7rgVfsqE3Kh3zxF61I66-20" style="edgeStyle=none;html=1;exitX=0;exitY=0.5;exitDx=0;exitDy=0;fontSize=20;" parent="E6LEEl8h78n84_nz22sx-4" source="7rgVfsqE3Kh3zxF61I66-17" target="7rgVfsqE3Kh3zxF61I66-38" edge="1">
                    <mxGeometry relative="1" as="geometry">
                        <mxPoint x="410" y="159.714285714286" as="targetPoint"/>
                    </mxGeometry>
                </mxCell>
                <mxCell id="7rgVfsqE3Kh3zxF61I66-25" value="" style="edgeStyle=none;html=1;fontSize=20;" parent="E6LEEl8h78n84_nz22sx-0" source="7rgVfsqE3Kh3zxF61I66-23" target="7rgVfsqE3Kh3zxF61I66-24" edge="1">
                    <mxGeometry relative="1" as="geometry"/>
                </mxCell>
                <mxCell id="7rgVfsqE3Kh3zxF61I66-27" value="" style="edgeStyle=none;html=1;fontSize=20;" parent="E6LEEl8h78n84_nz22sx-0" source="7rgVfsqE3Kh3zxF61I66-24" target="7rgVfsqE3Kh3zxF61I66-26" edge="1">
                    <mxGeometry relative="1" as="geometry">
                        <Array as="points">
                            <mxPoint x="1180" y="250"/>
                        </Array>
                    </mxGeometry>
                </mxCell>
                <mxCell id="7rgVfsqE3Kh3zxF61I66-29" value="" style="edgeStyle=none;html=1;fontSize=20;" parent="E6LEEl8h78n84_nz22sx-0" source="7rgVfsqE3Kh3zxF61I66-26" target="7rgVfsqE3Kh3zxF61I66-28" edge="1">
                    <mxGeometry relative="1" as="geometry">
                        <Array as="points">
                            <mxPoint x="1330" y="500"/>
                        </Array>
                    </mxGeometry>
                </mxCell>
                <mxCell id="7rgVfsqE3Kh3zxF61I66-37" style="edgeStyle=none;html=1;exitX=0.5;exitY=1;exitDx=0;exitDy=0;entryX=0.5;entryY=0;entryDx=0;entryDy=0;fontSize=20;" parent="E6LEEl8h78n84_nz22sx-0" source="7rgVfsqE3Kh3zxF61I66-4" target="7rgVfsqE3Kh3zxF61I66-12" edge="1">
                    <mxGeometry relative="1" as="geometry">
                        <Array as="points">
                            <mxPoint x="600" y="310"/>
                            <mxPoint x="560" y="310"/>
                        </Array>
                    </mxGeometry>
                </mxCell>
            </root>
        </mxGraphModel>
    </diagram>
</mxfile>